<svg width="163" height="42" viewBox="0 0 163 42" fill="none" xmlns="http://www.w3.org/2000/svg">
<path d="M7.7041 21.8845L7.63545 31.001C7.63057 31.6487 8.15432 32.1764 8.80208 32.1764H16.5393H24.3627C25.0071 32.1764 25.5294 31.6541 25.5294 31.0098V10.9902C25.5294 10.3458 25.0071 9.82349 24.3627 9.82349H3.16667C2.52233 9.82349 2 10.3458 2 10.9902V22.8814C2 23.5258 2.52233 24.0481 3.16667 24.0481H18.6582C19.3025 24.0481 19.8249 23.5258 19.8249 22.8815L19.8252 16.6999C19.8253 16.0555 19.3029 15.5331 18.6586 15.5331H13.7647H8.87077C8.22644 15.5331 7.7041 16.0555 7.7041 16.6998V21.8845Z" stroke="url(#paint0_linear_5090_14822)" stroke-width="2.82353"/>
<path d="M37.0651 32V12.0941H45.9028C48.0863 12.0941 49.7522 12.6212 50.9004 13.6753C52.0487 14.7294 52.6228 16.1788 52.6228 18.0235C52.6228 19.8494 52.0487 21.2988 50.9004 22.3718C49.7522 23.4447 48.0863 23.9812 45.9028 23.9812H40.7075V32H37.0651ZM40.7075 21.1012H45.4793C46.684 21.1012 47.5875 20.8376 48.1899 20.3106C48.7922 19.7647 49.0934 19.0024 49.0934 18.0235C49.0934 17.0447 48.7922 16.2918 48.1899 15.7647C47.5875 15.2188 46.684 14.9459 45.4793 14.9459H40.7075V21.1012ZM55.8703 32V11.2188H59.3997V32H55.8703ZM69.0207 32.2824C67.7783 32.2824 66.6865 31.9906 65.7454 31.4071C64.8042 30.8047 64.0701 29.9482 63.543 28.8376C63.016 27.7271 62.7524 26.4 62.7524 24.8565C62.7524 23.3129 63.016 21.9953 63.543 20.9035C64.0701 19.7929 64.8042 18.9459 65.7454 18.3624C66.6865 17.76 67.7783 17.4588 69.0207 17.4588C70.2254 17.4588 71.2795 17.76 72.183 18.3624C73.1054 18.9459 73.7171 19.7365 74.0183 20.7341H73.7077L74.0183 17.7412H77.4065C77.3501 18.3247 77.2936 18.9176 77.2371 19.52C77.1995 20.1224 77.1807 20.7153 77.1807 21.2988V32H73.6795L73.6512 29.0635H73.9901C73.6889 30.0424 73.0771 30.8235 72.1548 31.4071C71.2324 31.9906 70.1877 32.2824 69.0207 32.2824ZM70.0089 29.5718C71.1195 29.5718 72.0136 29.1859 72.6912 28.4141C73.3689 27.6235 73.7077 26.4376 73.7077 24.8565C73.7077 23.2753 73.3689 22.0988 72.6912 21.3271C72.0136 20.5553 71.1195 20.1694 70.0089 20.1694C68.8983 20.1694 68.0042 20.5553 67.3265 21.3271C66.6489 22.0988 66.3101 23.2753 66.3101 24.8565C66.3101 26.4376 66.6395 27.6235 67.2983 28.4141C67.976 29.1859 68.8795 29.5718 70.0089 29.5718ZM80.8861 38.4094L80.0673 35.6141C80.952 35.4259 81.6955 35.2094 82.2979 34.9647C82.9002 34.72 83.399 34.4 83.7943 34.0047C84.1896 33.6094 84.519 33.1012 84.7826 32.48L85.4885 30.8141L85.4037 32.1976L79.192 17.7412H82.9473L87.4085 28.8659H86.5896L91.079 17.7412H94.6367L88.1426 32.7906C87.7096 33.8071 87.239 34.6447 86.7308 35.3035C86.2226 35.9812 85.6767 36.5176 85.0932 36.9129C84.5096 37.3271 83.8696 37.6471 83.1732 37.8729C82.4767 38.0988 81.7143 38.2776 80.8861 38.4094ZM104.942 32.2824C103.737 32.2824 102.683 31.9906 101.779 31.4071C100.876 30.8047 100.273 29.9953 99.9723 28.9788H100.283V32H96.7817V11.2188H100.311V20.6494H99.9723C100.292 19.6706 100.904 18.8988 101.808 18.3341C102.711 17.7506 103.756 17.4588 104.942 17.4588C106.203 17.4588 107.304 17.76 108.245 18.3624C109.186 18.9647 109.921 19.8212 110.448 20.9318C110.975 22.0235 111.238 23.3412 111.238 24.8847C111.238 26.4282 110.975 27.7553 110.448 28.8659C109.921 29.9576 109.177 30.8047 108.217 31.4071C107.276 31.9906 106.184 32.2824 104.942 32.2824ZM103.953 29.5718C105.064 29.5718 105.958 29.1859 106.636 28.4141C107.332 27.6424 107.681 26.4659 107.681 24.8847C107.681 23.3035 107.332 22.1271 106.636 21.3553C105.958 20.5647 105.064 20.1694 103.953 20.1694C102.843 20.1694 101.949 20.5553 101.271 21.3271C100.593 22.0988 100.255 23.2753 100.255 24.8565C100.255 26.4376 100.593 27.6235 101.271 28.4141C101.949 29.1859 102.843 29.5718 103.953 29.5718ZM121.011 32.2824C119.543 32.2824 118.272 31.9812 117.199 31.3788C116.126 30.7765 115.289 29.92 114.686 28.8094C114.103 27.6988 113.811 26.3812 113.811 24.8565C113.811 23.3318 114.103 22.0235 114.686 20.9318C115.289 19.8212 116.126 18.9647 117.199 18.3624C118.272 17.76 119.543 17.4588 121.011 17.4588C122.479 17.4588 123.75 17.76 124.823 18.3624C125.914 18.9647 126.752 19.8212 127.336 20.9318C127.938 22.0235 128.239 23.3318 128.239 24.8565C128.239 26.3812 127.938 27.6988 127.336 28.8094C126.752 29.92 125.914 30.7765 124.823 31.3788C123.75 31.9812 122.479 32.2824 121.011 32.2824ZM121.011 29.5718C122.121 29.5718 123.006 29.1859 123.665 28.4141C124.324 27.6235 124.653 26.4376 124.653 24.8565C124.653 23.2753 124.324 22.0988 123.665 21.3271C123.006 20.5553 122.121 20.1694 121.011 20.1694C119.9 20.1694 119.016 20.5553 118.357 21.3271C117.698 22.0988 117.369 23.2753 117.369 24.8565C117.369 26.4376 117.698 27.6235 118.357 28.4141C119.016 29.1859 119.9 29.5718 121.011 29.5718ZM138.003 32.2824C136.535 32.2824 135.264 31.9812 134.191 31.3788C133.118 30.7765 132.28 29.92 131.678 28.8094C131.095 27.6988 130.803 26.3812 130.803 24.8565C130.803 23.3318 131.095 22.0235 131.678 20.9318C132.28 19.8212 133.118 18.9647 134.191 18.3624C135.264 17.76 136.535 17.4588 138.003 17.4588C139.471 17.4588 140.742 17.76 141.815 18.3624C142.906 18.9647 143.744 19.8212 144.328 20.9318C144.93 22.0235 145.231 23.3318 145.231 24.8565C145.231 26.3812 144.93 27.6988 144.328 28.8094C143.744 29.92 142.906 30.7765 141.815 31.3788C140.742 31.9812 139.471 32.2824 138.003 32.2824ZM138.003 29.5718C139.113 29.5718 139.998 29.1859 140.657 28.4141C141.316 27.6235 141.645 26.4376 141.645 24.8565C141.645 23.2753 141.316 22.0988 140.657 21.3271C139.998 20.5553 139.113 20.1694 138.003 20.1694C136.892 20.1694 136.008 20.5553 135.349 21.3271C134.69 22.0988 134.36 23.2753 134.36 24.8565C134.36 26.4376 134.69 27.6235 135.349 28.4141C136.008 29.1859 136.892 29.5718 138.003 29.5718ZM148.557 32V11.2188H152.086V23.8118H152.143L157.931 17.7412H162.195L154.995 25.28L155.023 23.8682L162.703 32H158.326L152.143 25.6188H152.086V32H148.557Z" fill="#474E69"/>
<defs>
<linearGradient id="paint0_linear_5090_14822" x1="25.5299" y1="7.44447" x2="1.76279" y2="35.7548" gradientUnits="userSpaceOnUse">
<stop offset="0.015625" stop-color="#7AE7FF"/>
<stop offset="0.396345" stop-color="#6A98FF"/>
<stop offset="0.890625" stop-color="#3964FF"/>
</linearGradient>
</defs>
</svg>
