<svg width="27" height="26" viewBox="0 0 27 26" fill="none" xmlns="http://www.w3.org/2000/svg">
<path d="M7.7041 13.8845L7.63545 23.001C7.63057 23.6487 8.15432 24.1764 8.80208 24.1764H16.5393H24.3627C25.0071 24.1764 25.5294 23.6541 25.5294 23.0098V2.99015C25.5294 2.34582 25.0071 1.82349 24.3627 1.82349H3.16667C2.52233 1.82349 2 2.34582 2 2.99015V14.8814C2 15.5258 2.52233 16.0481 3.16667 16.0481H18.6582C19.3025 16.0481 19.8249 15.5258 19.8249 14.8815L19.8252 8.69986C19.8253 8.0555 19.3029 7.53313 18.6586 7.53313H13.7647H8.87077C8.22644 7.53313 7.7041 8.05546 7.7041 8.69979V13.8845Z" stroke="url(#paint0_linear_7967_25535)" stroke-width="2.82353"/>
<defs>
<linearGradient id="paint0_linear_7967_25535" x1="25.5299" y1="-0.555529" x2="1.76279" y2="27.7548" gradientUnits="userSpaceOnUse">
<stop offset="0.015625" stop-color="#7AE7FF"/>
<stop offset="0.396345" stop-color="#6A98FF"/>
<stop offset="0.890625" stop-color="#3964FF"/>
</linearGradient>
</defs>
</svg>
